<?xml version="1.0" encoding="UTF-8" standalone="no"?>
<svg width="64px" height="32px" viewBox="0 0 64 32" version="1.1" xmlns="http://www.w3.org/2000/svg" xmlns:xlink="http://www.w3.org/1999/xlink">
    <!-- Generator: Sketch 3.7.2 (28276) - http://www.bohemiancoding.com/sketch -->
    <title>Group</title>
    <desc>Created with Sketch.</desc>
    <defs></defs>
    <g id="Page-1" stroke="none" stroke-width="1" fill="none" fill-rule="evenodd">
        <g id="Group">
            <rect id="Rectangle-3" fill="#288FEB" x="0" y="0" width="64" height="32" rx="3"></rect>
            <g id="Cloud_upload_font_awesome" transform="translate(8.000000, 8.000000)" fill="#FFFFFF">
                <g id="g3003" transform="translate(10.500000, 7.500000) scale(1, -1) translate(-10.500000, -7.500000) ">
                    <path d="M13.4706649,7.00290998 C13.4706649,7.10017262 13.439093,7.1800669 13.3759493,7.24259288 L9.67151642,10.9107838 C9.60837268,10.9733098 9.52768904,11.0045728 9.42946545,11.0045728 C9.33124185,11.0045728 9.25055815,10.9733098 9.1874144,10.9107838 L5.49350554,7.25301391 C5.42334583,7.16964593 5.38826597,7.08627796 5.38826597,7.00290998 C5.38826597,6.90564734 5.41983784,6.825753 5.48298158,6.76322702 C5.54612532,6.70070104 5.62680899,6.66943808 5.72503259,6.66943808 L8.08239895,6.66943808 L8.08239895,3.00124713 C8.08239895,2.91093183 8.1157248,2.83277435 8.18237656,2.76677471 C8.24902826,2.70077505 8.32795795,2.66777523 8.41916558,2.66777523 L10.4397653,2.66777523 C10.5309729,2.66777523 10.6099026,2.70077505 10.6765543,2.76677471 C10.7432061,2.83277435 10.7765319,2.91093183 10.7765319,3.00124713 L10.7765319,6.66943808 L13.1338983,6.66943808 C13.2251059,6.66943808 13.3040356,6.70243788 13.3706873,6.76843756 C13.4373391,6.83443718 13.4706649,6.91259467 13.4706649,7.00290998 L13.4706649,7.00290998 L13.4706649,7.00290998 Z M20.2059974,4.00166285 C20.2059974,2.89703716 19.811349,1.95393694 19.0220522,1.17236216 C18.2327554,0.390787387 17.2803373,1.77635684e-15 16.1647979,1.77635684e-15 L4.71473272,1.77635684e-15 C3.41677803,1.77635684e-15 2.30650057,0.456787035 1.38390034,1.37036111 C0.461300114,2.28393517 0,3.38335036 0,4.66860665 C0,5.57175973 0.245558996,6.40543949 0.736676988,7.16964593 C1.22779498,7.93385238 1.88729628,8.50700725 2.7151809,8.8891104 C2.70114896,9.09753034 2.69413298,9.246898 2.69413298,9.33721331 C2.69413298,10.8100475 3.22033083,12.0675145 4.27272653,13.1096142 C5.32512223,14.1517139 6.59501304,14.6727638 8.08239895,14.6727638 C9.17689048,14.6727638 10.1784204,14.3705549 11.0869887,13.766137 C11.9955569,13.1617192 12.6568123,12.3593024 13.0707546,11.3588867 C13.5688885,11.7896213 14.1512141,12.0049885 14.8177314,12.0049885 C15.5614244,12.0049885 16.1963697,11.7444636 16.7225676,11.2234137 C17.2487654,10.7023639 17.5118644,10.0736304 17.5118644,9.33721331 C17.5118644,8.80921613 17.368037,8.32985026 17.0803821,7.89911572 C17.9924584,7.68374845 18.7414134,7.21306677 19.327247,6.48707061 C19.9130806,5.76107451 20.2059974,4.93260524 20.2059974,4.00166285 L20.2059974,4.00166285 L20.2059974,4.00166285 Z" id="path3005"></path>
                </g>
            </g>
            <path d="M34.7045828,21.1073794 L34.7045828,11.1673648 L38.1363909,11.1673648 C39.1554054,11.1673648 40.0592773,11.3868773 40.8480337,11.825909 C41.6367901,12.2649406 42.2393714,12.8604138 42.6557955,13.6123464 C43.0722198,14.3642791 43.2804287,15.2083714 43.2804287,16.1446488 C43.2804287,16.8480697 43.1579529,17.5041817 42.9129974,18.1130046 C42.6680421,18.7218275 42.3251096,19.2469596 41.8841899,19.6884168 C41.4432701,20.1298741 40.9007021,20.4767281 40.2564693,20.7289894 C39.6122366,20.9812507 38.9055508,21.1073794 38.1363909,21.1073794 L34.7045828,21.1073794 L34.7045828,21.1073794 Z M35.9538491,20.0013163 L38.1363909,20.0013163 C38.9251473,20.0013163 39.6159112,19.8266765 40.2087033,19.4773916 C40.8014953,19.1281068 41.2460827,18.6648262 41.5424788,18.087536 C41.8388748,17.5102458 41.9870706,16.8626232 41.9870706,16.1446488 C41.9870706,15.4169721 41.8413244,14.7644984 41.5498274,14.1872082 C41.2583305,13.609918 40.8174174,13.1466374 40.2270748,12.7973526 C39.6367323,12.4480677 38.9398446,12.2734279 38.1363909,12.2734279 L35.9538491,12.2734279 L35.9538491,20.0013163 L35.9538491,20.0013163 Z M44.5438358,16.1446488 C44.5438358,15.1744132 44.75082,14.2987886 45.1647946,13.5177489 C45.5787693,12.7367092 46.1666534,12.1218316 46.9284647,11.6730976 C47.6902761,11.2243636 48.5561804,11 49.5262038,11 C50.4962273,11 51.3633564,11.2243636 52.1276172,11.6730976 C52.8918781,12.1218316 53.4822118,12.7367092 53.898636,13.5177489 C54.3150602,14.2987886 54.5232692,15.1744132 54.5232692,16.1446488 C54.5232692,17.1148845 54.3150602,17.990509 53.898636,18.7715487 C53.4822118,19.5525884 52.8918781,20.167466 52.1276172,20.6162 C51.3633564,21.064934 50.4962273,21.2892977 49.5262038,21.2892977 C48.5561804,21.2892977 47.6902761,21.064934 46.9284647,20.6162 C46.1666534,20.167466 45.5787693,19.5525884 45.1647946,18.7715487 C44.75082,17.990509 44.5438358,17.1148845 44.5438358,16.1446488 L44.5438358,16.1446488 L44.5438358,16.1446488 Z M45.8445425,16.1446488 C45.8445425,16.911135 45.9927383,17.599992 46.2891343,18.2112404 C46.5855303,18.8224889 47.0154207,19.3039611 47.5788181,19.6556716 C48.1422155,20.007382 48.7913376,20.1832345 49.5262038,20.1832345 C50.2610701,20.1832345 50.9114169,20.007382 51.4772639,19.6556716 C52.0431109,19.3039611 52.4766755,18.8224889 52.7779706,18.2112404 C53.0792658,17.599992 53.2299111,16.911135 53.2299111,16.1446488 C53.2299111,14.9706637 52.8894282,14.0040809 52.2084522,13.2448715 C51.5274761,12.4856621 50.6334023,12.1060631 49.5262038,12.1060631 C48.4141063,12.1060631 47.522482,12.4844493 46.8513042,13.2412332 C46.1801263,13.9980169 45.8445425,14.9658125 45.8445425,16.1446488 L45.8445425,16.1446488 L45.8445425,16.1446488 Z" id="DO" fill="#FFFFFF"></path>
        </g>
    </g>
</svg>