<svg width="91px" height="32px" viewBox="0 0 91 32" version="1.1" xmlns="http://www.w3.org/2000/svg" xmlns:xlink="http://www.w3.org/1999/xlink">
    <!-- Generator: Sketch 48.2 (47327) - http://www.bohemiancoding.com/sketch -->
    <desc>Created with Sketch.</desc>
    <defs></defs>
    <g id="Page-1" stroke="none" stroke-width="1" fill="none" fill-rule="evenodd">
        <g id="do-it">
            <rect id="Rectangle-3" fill="#288FEB" fill-rule="nonzero" x="0" y="0" width="91" height="32" rx="3"></rect>
            <g id="Cloud_upload_font_awesome" transform="translate(8.000000, 8.000000)" fill="#FFFFFF" fill-rule="nonzero">
                <g id="g3003" transform="translate(11.200000, 8.000000) scale(-1, 1) rotate(-180.000000) translate(-11.200000, -8.000000) ">
                    <path d="M14.3687092,7.46977065 C14.3687092,7.57351746 14.3350325,7.65873803 14.2676793,7.72543241 L10.3162842,11.6381694 C10.2489309,11.7048638 10.1628683,11.738211 10.0580965,11.738211 C9.95332464,11.738211 9.86726203,11.7048638 9.79990869,11.6381694 L5.85973924,7.73654817 C5.78490222,7.64762233 5.7474837,7.55869649 5.7474837,7.46977065 C5.7474837,7.36602383 5.78116036,7.2808032 5.84851369,7.21410882 C5.91586701,7.14741444 6.00192959,7.11406729 6.10670143,7.11406729 L8.62122555,7.11406729 L8.62122555,3.20133027 C8.62122555,3.10499395 8.65677312,3.02162597 8.72786833,2.95122636 C8.79896348,2.88082672 8.88315515,2.84562691 8.98044329,2.84562691 L11.1357497,2.84562691 C11.2330378,2.84562691 11.3172294,2.88082672 11.3883246,2.95122636 C11.4594198,3.02162597 11.4949674,3.10499395 11.4949674,3.20133027 L11.4949674,7.11406729 L14.0094915,7.11406729 C14.1067796,7.11406729 14.1909713,7.14926707 14.2620665,7.21966673 C14.3331617,7.29006633 14.3687092,7.37343431 14.3687092,7.46977065 Z M21.5530639,4.26844037 C21.5530639,3.09017297 21.1321056,2.0841994 20.290189,1.25051964 C19.4482724,0.416839879 18.4323598,1.77635684e-15 17.2424511,1.77635684e-15 L5.02904823,1.77635684e-15 C3.64456323,1.77635684e-15 2.46026727,0.487239504 1.47616036,1.46171852 C0.492053455,2.43619751 0,3.60890705 0,4.97984709 C0,5.94321038 0.261929596,6.83246879 0.785788787,7.64762233 C1.30964798,8.46277587 2.01311603,9.07414107 2.89619296,9.48171776 C2.88122556,9.70403236 2.87374185,9.86335787 2.87374185,9.9596942 C2.87374185,11.5307173 3.43501955,12.8720155 4.55757497,13.9835885 C5.68013038,15.0951615 7.03468058,15.6509481 8.62122555,15.6509481 C9.78868318,15.6509481 10.8569818,15.3285919 11.8261213,14.6838795 C12.7952607,14.0391671 13.5005998,13.1832559 13.9421382,12.1161458 C14.4734811,12.5755961 15.0946284,12.8053211 15.8055802,12.8053211 C16.5988527,12.8053211 17.2761277,12.5274278 17.8374054,11.9716413 C18.3986831,11.4158548 18.679322,10.7452058 18.679322,9.9596942 C18.679322,9.39649721 18.5259061,8.88517361 18.2190742,8.42572343 C19.1919556,8.19599835 19.990841,7.69393789 20.6157301,6.91954198 C21.2406193,6.14514614 21.5530639,5.26144559 21.5530639,4.26844037 Z" id="path3005"></path>
                </g>
            </g>
            <text id="DO" font-family="Nunito-SemiBold, Nunito" font-size="21" font-weight="500" line-spacing="25" fill="#FFFFFF">
                <tspan x="34" y="24">DO</tspan>
            </text>
        </g>
        <text id="it" font-family="Nunito-SemiBold, Nunito" font-size="20" font-weight="500" fill="#FFFFFF">
            <tspan x="69" y="23">it</tspan>
        </text>
    </g>
</svg>
