<svg width="89px" height="32px" viewBox="0 0 89 32" version="1.1" xmlns="http://www.w3.org/2000/svg" xmlns:xlink="http://www.w3.org/1999/xlink">
    <!-- Generator: Sketch 48.2 (47327) - http://www.bohemiancoding.com/sketch -->
    <desc>Created with Sketch.</desc>
    <defs></defs>
    <g id="Page-1" stroke="none" stroke-width="1" fill="none" fill-rule="evenodd">
        <g id="do-it">
            <rect id="Rectangle-3" fill="#288FEB" fill-rule="nonzero" x="0" y="0" width="89" height="32" rx="3"></rect>
            <g id="Cloud_upload_font_awesome" transform="translate(8.000000, 8.000000)" fill="#FFFFFF" fill-rule="nonzero">
                <g id="g3003" transform="translate(10.500000, 7.500000) scale(-1, 1) rotate(-180.000000) translate(-10.500000, -7.500000) ">
                    <path d="M13.4706649,7.00290998 C13.4706649,7.10017262 13.439093,7.1800669 13.3759493,7.24259288 L9.67151642,10.9107838 C9.60837268,10.9733098 9.52768904,11.0045728 9.42946545,11.0045728 C9.33124185,11.0045728 9.25055815,10.9733098 9.1874144,10.9107838 L5.49350554,7.25301391 C5.42334583,7.16964593 5.38826597,7.08627796 5.38826597,7.00290998 C5.38826597,6.90564734 5.41983784,6.825753 5.48298158,6.76322702 C5.54612532,6.70070104 5.62680899,6.66943808 5.72503259,6.66943808 L8.08239895,6.66943808 L8.08239895,3.00124713 C8.08239895,2.91093183 8.1157248,2.83277435 8.18237656,2.76677471 C8.24902826,2.70077505 8.32795795,2.66777523 8.41916558,2.66777523 L10.4397653,2.66777523 C10.5309729,2.66777523 10.6099026,2.70077505 10.6765543,2.76677471 C10.7432061,2.83277435 10.7765319,2.91093183 10.7765319,3.00124713 L10.7765319,6.66943808 L13.1338983,6.66943808 C13.2251059,6.66943808 13.3040356,6.70243788 13.3706873,6.76843756 C13.4373391,6.83443718 13.4706649,6.91259467 13.4706649,7.00290998 Z M20.2059974,4.00166285 C20.2059974,2.89703716 19.811349,1.95393694 19.0220522,1.17236216 C18.2327554,0.390787387 17.2803373,1.77635684e-15 16.1647979,1.77635684e-15 L4.71473272,1.77635684e-15 C3.41677803,1.77635684e-15 2.30650057,0.456787035 1.38390034,1.37036111 C0.461300114,2.28393517 0,3.38335036 0,4.66860665 C0,5.57175973 0.245558996,6.40543949 0.736676988,7.16964593 C1.22779498,7.93385238 1.88729628,8.50700725 2.7151809,8.8891104 C2.70114896,9.09753034 2.69413298,9.246898 2.69413298,9.33721331 C2.69413298,10.8100475 3.22033083,12.0675145 4.27272653,13.1096142 C5.32512223,14.1517139 6.59501304,14.6727638 8.08239895,14.6727638 C9.17689048,14.6727638 10.1784204,14.3705549 11.0869887,13.766137 C11.9955569,13.1617192 12.6568123,12.3593024 13.0707546,11.3588867 C13.5688885,11.7896213 14.1512141,12.0049885 14.8177314,12.0049885 C15.5614244,12.0049885 16.1963697,11.7444636 16.7225676,11.2234137 C17.2487654,10.7023639 17.5118644,10.0736304 17.5118644,9.33721331 C17.5118644,8.80921613 17.368037,8.32985026 17.0803821,7.89911572 C17.9924584,7.68374845 18.7414134,7.21306677 19.327247,6.48707061 C19.9130806,5.76107451 20.2059974,4.93260524 20.2059974,4.00166285 Z" id="path3005"></path>
                </g>
            </g>
            <text id="DO" font-family="Nunito-Bold, Nunito" font-size="20" font-weight="bold" line-spacing="25" fill="#FFFFFF">
                <tspan x="33" y="24">DO</tspan>
            </text>
        </g>
        <text id="it" font-family="Nunito-Bold, Nunito" font-size="20" font-weight="bold" fill="#FFFFFF">
            <tspan x="67" y="23">it</tspan>
        </text>
    </g>
</svg>
